<svg width="95" height="76" viewBox="0 0 95 76" fill="none" xmlns="http://www.w3.org/2000/svg">
<path d="M31.0458 19.9779C31.0426 19.6671 31.2922 19.4143 31.603 19.4127C31.9137 19.4095 32.1666 19.659 32.1682 19.9698C32.1746 20.4899 32.1649 20.9504 32.1424 21.3659C32.9008 21.2741 33.6399 21.1324 34.35 20.8925C35.2517 20.5865 36.118 20.118 36.936 19.3821C37.0294 19.2967 37.1534 19.2436 37.2903 19.2388C39.8247 19.1325 40.6508 17.9361 41.4752 16.7397C41.9486 16.0522 42.4236 15.3646 43.174 14.8075C43.2819 14.7173 43.4252 14.669 43.5766 14.6802C43.6216 14.6835 43.6571 14.6851 43.6844 14.6851C44.0339 14.6754 44.43 14.5031 44.7536 14.2374C45.0596 13.9862 45.2834 13.6594 45.3108 13.3244C45.314 13.2842 45.3156 13.2552 45.3156 13.2343C45.3059 12.8849 45.1369 12.5338 44.8905 12.2392C44.7053 12.0169 44.4783 11.8302 44.2432 11.7013C44.0322 11.5854 43.8277 11.521 43.6587 11.5242C43.583 11.5258 43.5186 11.5435 43.4719 11.5806C43.2658 11.7754 43.1128 12.0202 43.0114 12.3261C42.9003 12.6626 42.8487 13.0732 42.8584 13.574C42.8777 13.7882 42.7731 14.004 42.5734 14.1167C41.7973 14.5514 41.0131 14.7479 40.2289 14.9427C38.8538 15.2857 37.4803 15.6303 36.4079 17.4611C36.2871 17.6946 36.015 17.8202 35.7525 17.7445C35.0279 17.5384 34.3291 17.4418 33.6399 17.4482C33.0087 17.453 32.3807 17.5432 31.7447 17.7107C31.7286 17.7316 31.7125 17.7542 31.6964 17.7751C31.078 18.5931 30.1489 19.1969 29.3889 19.4545C29.3358 19.4771 29.2794 19.4916 29.2182 19.4964C28.4019 19.5656 27.6869 19.4078 27.0654 19.1132C26.4921 18.8427 26.0059 18.4578 25.5969 18.0343C25.4809 18.1809 25.3634 18.3242 25.2491 18.4675C25.175 18.5593 25.1025 18.6478 24.9657 18.8201C24.7708 19.0616 24.4166 19.1003 24.175 18.9055C23.9335 18.7106 23.8949 18.3564 24.0897 18.1148C24.1396 18.052 24.2588 17.9055 24.3779 17.759C25.7981 16.0038 27.4277 13.9927 26.9527 10.5774C26.9221 10.36 27.0219 10.1539 27.191 10.0364C28.1491 9.27957 29.0926 8.53404 30.1264 7.69834C31.1022 6.90933 32.0667 6.11228 33.0264 5.28624L33.028 5.28463L33.0264 5.28301L33.0763 5.23954C33.086 5.23149 33.0973 5.22183 33.1069 5.21378C33.6399 4.75486 34.1648 4.29434 34.3323 3.63093L34.3355 3.61805C34.3355 3.61322 34.3371 3.60678 34.3371 3.59873C34.3484 3.47313 34.2357 3.31694 34.0634 3.16558C33.8267 2.95786 33.4998 2.7904 33.1713 2.70506C33.0715 2.67929 32.9701 2.65997 32.867 2.65192C32.772 2.64387 32.6834 2.65031 32.6029 2.66963C32.326 2.73726 32.0732 2.94176 31.8767 3.21389C31.6658 3.50694 31.5273 3.87246 31.4967 4.22993C31.4822 4.3974 31.4903 4.55681 31.5257 4.70012C31.5901 4.96419 31.4564 5.22988 31.2197 5.34098C30.8784 5.50361 29.9042 6.00761 28.8737 6.56314C28.8511 6.57763 28.827 6.59051 28.8028 6.60178C28.3954 6.82077 27.9816 7.04781 27.5968 7.26197C26.7256 7.74826 26.0171 8.16047 25.927 8.2587C24.4278 9.914 24.0704 11.3246 23.6759 12.8784C23.4553 13.7495 23.2218 14.6641 22.787 15.7011C22.7468 15.7961 22.684 15.875 22.6067 15.933C20.7759 17.5561 20.9321 19.2758 21.0818 20.9295C21.1011 21.1372 21.1189 21.3433 21.135 21.5494C21.1366 21.5623 21.1382 21.5752 21.1382 21.5881C21.1398 21.601 21.1398 21.6138 21.1398 21.6283C21.1639 21.9729 21.1784 22.3159 21.1655 22.6589L21.1639 22.6766H21.1655C21.0641 24.1999 20.3105 25.2481 19.3186 26.0113C18.3766 26.7359 17.2447 27.182 16.2737 27.5394C15.979 27.6489 15.6344 27.7568 15.2721 27.8695C14.3286 28.1658 13.2513 28.5024 12.8053 28.9419C12.3351 29.4057 12.034 30.0449 11.8875 30.7389C11.7554 31.3637 11.7506 32.0255 11.8617 32.6454C12.0904 32.478 12.3577 32.325 12.6716 32.1898C12.9567 32.0674 13.2884 32.201 13.4091 32.4876C13.5315 32.7726 13.3979 33.1044 13.1112 33.2251C11.6073 33.8676 11.691 35.3474 11.7651 36.6275C11.7715 36.7402 11.778 36.8513 11.7828 36.9673C11.9567 37.1444 11.9986 37.4213 11.8681 37.6452C11.712 37.9125 11.3674 38.0026 11.1001 37.8448C9.7169 37.0333 8.4722 37.9044 7.2275 38.7771C6.49485 39.2908 5.7622 39.8029 4.95709 40.0685L4.85243 40.1024L4.74132 40.0943C4.44504 40.0734 4.21639 39.9671 3.98613 39.8608C3.78486 39.7674 3.58358 39.6757 3.39679 39.8335C3.25026 39.9687 3.21645 40.3986 3.18263 40.8286C3.16009 41.1248 3.13594 41.4227 3.06992 41.7045L3.03771 41.8414L2.94915 41.9445C2.69152 42.2439 2.33405 42.479 1.97658 42.7125C1.74632 42.8639 1.51767 43.0136 1.34538 43.1714C1.19885 43.3051 1.13283 43.516 1.12156 43.7431C1.10706 44.0715 1.20207 44.4177 1.35021 44.6722C1.44843 44.8412 1.57242 44.9829 1.69962 45.094C1.78658 45.1697 1.86548 45.2245 1.92988 45.2583C2.00879 45.2357 2.07802 45.1987 2.13277 45.152C2.19396 45.1005 2.23261 45.0489 2.23583 45.0103C2.26964 44.6947 2.31312 44.4773 2.41617 44.2551C2.51922 44.0329 2.66253 43.8558 2.8944 43.6255C3.89274 42.6288 4.58513 42.0266 5.39346 41.6127C6.20501 41.1973 7.07936 40.996 8.43677 40.8044C8.96332 40.7303 9.50435 40.6836 10.0389 40.6836C10.5848 40.6836 11.1162 40.732 11.6089 40.8479L11.654 40.8592L11.6926 40.8753C11.9535 40.9815 12.2997 41.1055 12.633 41.1087C12.9228 41.112 13.2272 41.0186 13.4961 40.7239C13.6362 40.5709 13.7424 40.4147 13.8503 40.2553C14.021 40.0057 14.1949 39.7481 14.5121 39.4389C14.8793 39.0799 15.2512 38.7498 15.628 38.4132C17.6875 36.5808 19.9386 34.5777 18.2156 30.6826C18.09 30.3976 18.2188 30.0659 18.5039 29.9403C18.7889 29.8147 19.1206 29.9435 19.2462 30.2285C19.5891 31.003 19.8017 31.7115 19.9096 32.3637C19.9869 32.362 20.0658 32.3749 20.1414 32.4071C22.9609 33.5778 24.7644 33.1414 25.9769 31.974C27.2473 30.7502 27.9494 28.7117 28.4759 26.8261C28.5097 26.7037 28.5468 26.554 28.5774 26.4252C28.7046 25.8938 28.7513 25.6974 29.302 25.1257C29.9219 24.4816 30.3695 23.9873 30.6433 23.2949C30.7866 22.9342 30.8897 22.5107 30.9541 21.9729C30.9557 21.9439 30.9589 21.915 30.9637 21.886C31.0217 21.3675 31.0458 20.7443 31.0362 19.9779H31.0458ZM47.9789 46.6237C48.4925 45.1391 49.3379 43.8091 50.4248 42.7206C52.2846 40.8608 54.8545 39.7111 57.6917 39.7111C60.4629 39.7111 62.8525 40.8109 64.635 42.5934C66.4964 44.4548 67.6912 47.0633 67.9649 49.9343C68.5575 56.1611 60.041 64.3329 53.7225 70.3986C51.531 72.5015 49.61 74.3453 48.4555 75.7381C48.2575 75.978 47.9032 76.0118 47.6633 75.8122C47.6327 75.788 47.6069 75.759 47.5828 75.73C46.4717 74.3936 44.6151 72.5756 42.4832 70.4888C36.2114 64.3506 27.5951 55.9179 27.9913 49.9521C28.1813 47.0875 29.3648 44.4918 31.2246 42.632C33.0312 40.8253 35.4739 39.7111 38.2661 39.7111C41.1033 39.7111 43.6732 40.8608 45.533 42.7206C46.6199 43.8075 47.4652 45.1391 47.9789 46.6237ZM51.2219 43.5176C49.5666 45.1729 48.5425 47.4611 48.5425 49.9875H47.4153C47.4153 47.4611 46.3912 45.1729 44.7359 43.5176C43.0806 41.8623 40.7925 40.8382 38.2661 40.8382C35.7895 40.8382 33.6238 41.8269 32.0216 43.4291C30.3502 45.1005 29.2859 47.4401 29.1152 50.0229C28.7529 55.4783 37.1566 63.7017 43.2722 69.6885C45.1819 71.5564 46.8711 73.2117 48.024 74.5159C49.2236 73.1617 50.9771 71.4791 52.9448 69.5903C59.0974 63.684 67.3901 55.7263 66.849 50.0422C66.6011 47.4353 65.5206 45.0731 63.8411 43.392C62.2631 41.814 60.1489 40.8398 57.6949 40.8398C55.1685 40.8398 52.8804 41.8639 51.2251 43.5192L51.2219 43.5176ZM45.2286 17.7091L44.1015 17.7171L44.0934 16.59L45.2206 16.5819L45.2286 17.7091ZM45.3848 40.2521L44.2577 40.2602L44.2496 39.133L45.3768 39.125L45.3848 40.2521ZM45.3687 37.9978L44.2416 38.0059L44.2335 36.8787L45.3607 36.8707L45.3687 37.9978ZM45.3526 35.7435L44.2255 35.7516L44.2174 34.6244L45.3446 34.6163L45.3526 35.7435ZM45.3365 33.4892L44.2094 33.4972L44.2013 32.3701L45.3285 32.362L45.3365 33.4892ZM45.3204 31.2349L44.1933 31.2429L44.1852 30.1158L45.3124 30.1077L45.3204 31.2349ZM45.3043 28.9806L44.1772 28.9886L44.1691 27.8615L45.2963 27.8534L45.3043 28.9806ZM45.2882 26.7263L44.1611 26.7343L44.153 25.6072L45.2802 25.5991L45.2882 26.7263ZM45.2721 24.472L44.145 24.48L44.1369 23.3529L45.2641 23.3448L45.2721 24.472ZM45.256 22.2177L44.1289 22.2257L44.1208 21.0986L45.248 21.0905L45.256 22.2177ZM45.2399 19.9634L44.1128 19.9714L44.1047 18.8443L45.2319 18.8362L45.2399 19.9634ZM51.4392 17.7139L50.3121 17.7219L50.304 16.5948L51.4312 16.5867L51.4392 17.7139ZM51.5954 40.2569L50.4683 40.265L50.4602 39.1378L51.5874 39.1298L51.5954 40.2569ZM51.5793 38.0026L50.4522 38.0107L50.4441 36.8835L51.5713 36.8755L51.5793 38.0026ZM51.5632 35.7483L50.4361 35.7564L50.428 34.6292L51.5552 34.6212L51.5632 35.7483ZM51.5471 33.494L50.42 33.5021L50.4119 32.3749L51.5391 32.3669L51.5471 33.494ZM51.531 31.2397L50.4039 31.2478L50.3958 30.1206L51.523 30.1126L51.531 31.2397ZM51.5149 28.9854L50.3878 28.9935L50.3797 27.8663L51.5069 27.8583L51.5149 28.9854ZM51.4988 26.7311L50.3717 26.7392L50.3636 25.612L51.4908 25.604L51.4988 26.7311ZM51.4827 24.4768L50.3556 24.4849L50.3475 23.3577L51.4747 23.3497L51.4827 24.4768ZM51.4666 22.2225L50.3395 22.2306L50.3314 21.1034L51.4586 21.0954L51.4666 22.2225ZM51.4505 19.9682L50.3234 19.9763L50.3153 18.8491L51.4425 18.841L51.4505 19.9682ZM74.1514 0.484566C74.161 0.44109 74.1739 0.399225 74.1948 0.358969C74.3285 0.0787914 74.665 -0.0403647 74.9452 0.0932834C77.1432 1.14154 76.6842 2.86125 76.4459 3.61C77.8017 5.38929 76.7148 6.70806 75.3365 7.89479C75.1255 8.07674 74.9066 8.25548 74.6924 8.43099C74.5652 8.53565 74.438 8.63871 74.3172 8.74015C74.4766 9.23449 74.5362 9.74976 74.5121 10.2779C74.4476 11.6498 73.8036 13.0781 72.9389 14.4355C73.0178 14.669 73.1063 14.9073 73.2062 15.1504C73.6264 15.5304 73.9598 15.9121 74.2222 16.2921C74.5861 15.3179 75.2028 14.5869 75.7809 13.9009C75.9097 13.7479 76.0369 13.5966 76.1335 13.479C76.5281 12.9927 76.5168 12.7415 76.4958 12.2601C76.4894 12.1152 76.483 11.9558 76.4814 11.7432C76.4572 7.07358 79.1978 6.23787 81.9754 5.3909C83.3344 4.97546 84.7047 4.55842 85.6242 3.62127C85.8416 3.40067 86.1974 3.39745 86.4196 3.61483C86.4599 3.65347 86.4921 3.69695 86.5178 3.74365C87.5516 5.37963 87.2408 6.40373 86.3681 7.16858C87.4856 9.00906 86.8689 10.0605 85.6854 10.8479C86.7143 12.6482 86.0364 13.6706 84.8239 14.4452C84.6146 14.5788 84.3924 14.7012 84.1637 14.8155C85.1492 16.5835 84.4745 17.5947 83.2733 18.3612C82.7918 18.6688 82.2379 18.9167 81.6856 19.1631C81.1252 19.4143 80.5649 19.6655 80.1478 19.9521C80.0126 20.0455 79.7807 20.4722 79.507 20.9778C78.7276 22.4157 77.6729 24.3609 75.673 23.9776C75.5571 23.9551 75.4299 23.9213 75.2978 23.873C75.5523 24.3738 75.929 24.7811 76.367 25.1177C77.177 25.7408 78.2172 26.1482 79.1124 26.4783C79.3894 26.5798 79.7163 26.6828 80.0609 26.7907C81.1252 27.124 82.3409 27.504 82.9802 28.1352C83.6178 28.7648 84.022 29.6054 84.2104 30.5039C84.4101 31.4555 84.3714 32.4796 84.117 33.3861C84.0912 33.4763 84.0462 33.5536 83.9866 33.618C84.439 34.4746 84.4197 35.4907 84.3682 36.4439C85.8882 36.0849 87.1507 36.9689 88.4131 37.8529C89.0298 38.286 89.6481 38.7176 90.2664 38.9494C90.3469 38.9253 90.4436 38.8802 90.5402 38.8367C91.0683 38.5936 91.5949 38.3504 92.3275 38.972L92.3323 38.9768C92.8347 39.4132 92.8863 40.0782 92.9378 40.7416C92.9523 40.9365 92.9684 41.1313 92.9958 41.3036C93.1648 41.463 93.4015 41.6176 93.6366 41.7738C93.9104 41.9541 94.1857 42.1345 94.4127 42.3422C94.8008 42.698 94.9747 43.1875 94.9972 43.6931C95.023 44.2374 94.8652 44.8139 94.6189 45.2341C94.4546 45.5175 94.2453 45.7574 94.0311 45.9426C93.7687 46.1697 93.482 46.3242 93.2437 46.3806L93.1519 46.4031L93.0618 46.3935C92.6946 46.3581 92.379 46.2115 92.1407 46.0135C91.8573 45.7752 91.6754 45.4531 91.6416 45.1278C91.6206 44.9314 91.5997 44.8106 91.5627 44.7285C91.524 44.648 91.4467 44.5562 91.3099 44.4194C90.3904 43.5015 89.7689 42.9557 89.0926 42.6079C88.4195 42.2633 87.6402 42.0894 86.4051 41.9139C85.9156 41.8446 85.4261 41.8011 84.9575 41.8011C84.5163 41.8011 84.0864 41.8382 83.6871 41.93C83.3425 42.0684 82.8852 42.2214 82.3731 42.2262C81.7967 42.2311 81.1928 42.0523 80.6695 41.4759C80.4779 41.2649 80.3507 41.0765 80.2187 40.8849C80.0786 40.6788 79.9337 40.4663 79.7034 40.2408C79.3797 39.9252 79.0046 39.5903 78.6229 39.2506C78.1093 38.7933 77.586 38.3279 77.1029 37.8303C73.8728 37.7337 72.8551 36.5647 71.8713 35.4327C71.4414 34.9384 71.0179 34.4521 70.3867 34.1252C70.3158 34.0882 70.2563 34.0383 70.2079 33.9803C69.4479 33.7339 68.8006 33.3169 68.2435 32.7807C66.7798 31.3718 66.0101 29.1577 65.4401 27.1224C65.3805 26.9082 65.3515 26.7859 65.3258 26.6828C65.2501 26.3672 65.2227 26.2513 64.8878 25.9019C64.1745 25.1595 63.6576 24.5863 63.3082 23.7055C63.1713 23.3577 63.0634 22.9696 62.9877 22.5107C62.0747 22.4125 61.1762 22.2531 60.2971 21.9536C59.3132 21.6203 58.3664 21.1179 57.4695 20.3466C54.5325 20.163 53.5696 18.7686 52.6083 17.3741C52.217 16.8073 51.8273 16.2405 51.2879 15.8026C50.6921 15.7832 50.0448 15.5143 49.5424 15.0989C49.0175 14.6658 48.6294 14.0668 48.5763 13.4066C48.5714 13.3486 48.5698 13.2794 48.5714 13.2021C48.5876 12.5789 48.8613 11.9896 49.2558 11.5162C49.5344 11.1829 49.8741 10.9027 50.2235 10.7094C50.6003 10.5017 51.0013 10.3858 51.3748 10.3971C51.7017 10.4051 52.006 10.5066 52.2589 10.7175C52.2669 10.7239 52.2733 10.7304 52.2814 10.7368C52.6356 11.0653 52.8965 11.4679 53.0623 11.9686C53.1879 12.3486 53.2588 12.7818 53.2717 13.2761C53.8369 13.5418 54.4455 13.6948 55.0526 13.8462C56.5726 14.2262 58.0927 14.6062 59.3615 16.5497C60.0394 16.3903 60.7077 16.3146 61.3759 16.3211C61.8058 16.3243 62.2325 16.3613 62.6609 16.4322C62.5803 16.0827 62.5594 15.7156 62.6158 15.3308C62.6609 15.0297 62.722 14.8429 62.7736 14.6899C62.8267 14.5289 62.8541 14.4452 62.6705 14.0056C62.4837 13.5611 62.1778 13.1071 61.8735 12.653C61.7205 12.4243 61.5659 12.1973 61.4419 11.996C60.4935 10.4727 59.9847 8.92533 62.5272 7.2185C62.1005 6.86264 61.6738 6.50034 61.2439 6.1316L61.2423 6.13321L61.1923 6.08973C61.1827 6.08168 61.173 6.07202 61.1634 6.06236C60.4951 5.48751 59.8333 4.90461 59.5805 3.90145L59.5757 3.88052C59.5596 3.8145 59.5499 3.7517 59.5435 3.69212C59.4984 3.17363 59.7705 2.69378 60.1988 2.31699C60.5644 1.99656 61.0571 1.74215 61.545 1.61333C61.714 1.56824 61.8799 1.53926 62.0377 1.52477C62.2503 1.50705 62.4596 1.52477 62.6641 1.57468C63.218 1.70833 63.693 2.07707 64.0376 2.55531C64.3661 3.01261 64.5818 3.57618 64.6301 4.13171C64.6414 4.2557 64.643 4.38129 64.6366 4.50689C65.0714 4.72749 65.7412 5.07852 66.4561 5.46175C67.1421 5.1864 67.886 5.08174 68.6267 5.10589C69.2499 4.08179 70.2868 3.57779 71.3496 3.06252C72.5331 2.48768 73.752 1.89512 74.1578 0.487787L74.1514 0.484566ZM73.8036 7.70478C73.8631 7.65648 73.9227 7.60656 73.9823 7.55825C74.19 7.38918 74.3993 7.2185 74.6006 7.04459C75.5957 6.18796 76.3912 5.25403 75.409 4.11561C75.1851 3.85636 75.2495 3.65669 75.3494 3.34753C75.4685 2.97718 75.7471 2.10928 74.9887 1.44909C74.3301 2.86125 73.0645 3.47635 71.8327 4.07374C71.1097 4.42477 70.4012 4.76936 69.9101 5.27174C70.7441 5.46014 71.5315 5.79023 72.1772 6.19923C72.9002 6.65653 73.4332 7.16375 73.8052 7.70639L73.8036 7.70478ZM73.8567 21.6235C73.8567 21.6106 73.8583 21.5977 73.8583 21.5832C73.8583 21.5704 73.8599 21.5575 73.8615 21.5446C73.8776 21.3385 73.8953 21.1324 73.9147 20.9247C74.0644 19.271 74.2206 17.5497 72.3898 15.9282C72.3125 15.8702 72.2497 15.7913 72.2094 15.6963C71.7747 14.6609 71.5428 13.7463 71.3206 12.8736C70.9261 11.3197 70.5686 9.91078 69.0695 8.25387C68.9793 8.15403 68.2725 7.74343 67.3997 7.25714C67.0133 7.04137 66.5994 6.81594 66.1937 6.59695C66.1695 6.58568 66.1454 6.5728 66.1228 6.55831C65.0923 6.00278 64.1181 5.49878 63.7767 5.33615C63.54 5.22505 63.4064 4.95936 63.4708 4.69529C63.5062 4.55198 63.5143 4.39256 63.4998 4.2251C63.4692 3.86602 63.3307 3.50211 63.1198 3.20905C62.9233 2.93693 62.6705 2.73243 62.3936 2.6648C62.3114 2.64548 62.2229 2.63743 62.1295 2.64709C62.028 2.65675 61.925 2.67446 61.8252 2.70023C61.4967 2.78718 61.1682 2.95303 60.9331 3.16075C60.7608 3.31211 60.6497 3.4683 60.6594 3.5939C60.6594 3.60195 60.661 3.60839 60.661 3.61322L60.6642 3.6261C60.83 4.28951 61.3566 4.75003 61.8896 5.20894C61.9008 5.217 61.9105 5.22505 61.9202 5.23471L61.9701 5.27818L61.9685 5.27979L61.9701 5.2814C62.9298 6.10745 63.8943 6.9045 64.8701 7.69351C65.9038 8.52921 66.8474 9.27474 67.8055 10.0315C67.9746 10.1491 68.0744 10.3536 68.0438 10.5726C67.5704 13.9862 69.1983 15.999 70.6186 17.7542C70.7377 17.9007 70.8569 18.0472 70.9068 18.11C71.1016 18.3515 71.063 18.7058 70.8214 18.9006C70.5799 19.0955 70.2257 19.0568 70.0308 18.8153C69.8923 18.643 69.8215 18.5544 69.7474 18.4626C69.6315 18.3209 69.5156 18.176 69.3996 18.0295C68.9906 18.453 68.5059 18.8378 67.9311 19.1083C67.3096 19.403 66.5946 19.5608 65.7782 19.4916C65.7187 19.4867 65.6607 19.4723 65.6076 19.4497C64.8491 19.1937 63.92 18.5899 63.3001 17.7703C63.284 17.7493 63.2679 17.7268 63.2518 17.7058C62.6158 17.5384 61.9878 17.4482 61.3566 17.4434C60.6674 17.4369 59.9686 17.5336 59.244 17.7397C58.9815 17.8137 58.7094 17.6897 58.5886 17.4563C57.5178 15.6254 56.1427 15.2809 54.7676 14.9379C53.9834 14.7414 53.1992 14.545 52.4231 14.1118C52.2234 13.9991 52.1188 13.7834 52.1381 13.5692C52.1477 13.0684 52.0962 12.6578 51.9851 12.3213C51.8837 12.0153 51.7307 11.7706 51.5246 11.5757C51.4779 11.5387 51.4135 11.521 51.3378 11.5194C51.1687 11.5146 50.9642 11.5806 50.7533 11.6965C50.5182 11.8269 50.2912 12.0121 50.106 12.2343C49.8596 12.529 49.6906 12.88 49.6809 13.2294C49.6809 13.2504 49.6825 13.281 49.6857 13.3196C49.7131 13.6545 49.9369 13.9814 50.2429 14.2326C50.5665 14.4999 50.9626 14.6722 51.312 14.6802C51.3394 14.6802 51.3748 14.6802 51.4199 14.6754C51.5713 14.6641 51.713 14.7125 51.8225 14.8026C52.5745 15.3614 53.0479 16.0489 53.5213 16.7349C54.3457 17.9313 55.1701 19.1277 57.7062 19.2339C57.8431 19.2388 57.9655 19.2935 58.0605 19.3773C58.8785 20.1131 59.7448 20.5833 60.6465 20.8876C61.3566 21.1292 62.0957 21.2709 62.8541 21.361C62.8299 20.9472 62.8219 20.4851 62.8283 19.965C62.8315 19.6542 63.0843 19.4062 63.3935 19.4078C63.7043 19.4111 63.9523 19.6639 63.9506 19.973C63.9426 20.7395 63.9667 21.3626 64.0231 21.8811C64.0279 21.9085 64.0328 21.9375 64.0328 21.9665C64.0988 22.5043 64.2018 22.9278 64.3435 23.2885C64.6173 23.9809 65.0649 24.4752 65.6848 25.1193C66.2355 25.6925 66.2822 25.8874 66.4094 26.4187C66.44 26.5475 66.4755 26.6973 66.5109 26.8197C67.0374 28.7052 67.7395 30.7438 69.0099 31.9675C70.2224 33.1349 72.0259 33.5713 74.8454 32.4007C74.9211 32.3685 75 32.3556 75.0772 32.3572C75.1851 31.7035 75.3993 30.9966 75.7407 30.2221C75.8662 29.9371 76.198 29.8082 76.483 29.9338C76.768 30.0594 76.8968 30.3911 76.7712 30.6761C75.0483 34.5713 77.2977 36.5728 79.3588 38.4068C79.7372 38.7433 80.1076 39.0734 80.4747 39.4325C80.7903 39.7417 80.9658 39.9977 81.1365 40.2489C81.2444 40.4083 81.3507 40.5629 81.4907 40.7175C81.7597 41.0121 82.064 41.1039 82.3538 41.1023C82.6871 41.0991 83.0333 40.9767 83.2942 40.8688L83.3328 40.8527L83.3779 40.8414C83.869 40.7255 84.4004 40.6772 84.9479 40.6772C85.4825 40.6772 86.0235 40.7239 86.55 40.798C87.9091 40.9896 88.7834 41.1909 89.5934 41.6063C90.4017 42.0201 91.0941 42.6223 92.0924 43.6191C92.3243 43.8509 92.466 44.0281 92.5706 44.2487C92.6737 44.4709 92.7172 44.6883 92.751 45.0039C92.7558 45.0425 92.7929 45.0924 92.854 45.1456C92.9088 45.1923 92.978 45.2293 93.0569 45.2518C93.1213 45.218 93.2002 45.1633 93.2872 45.0876C93.4144 44.9781 93.5384 44.8348 93.6366 44.6657C93.7848 44.4113 93.8798 44.0635 93.8653 43.7366C93.8556 43.5096 93.788 43.2986 93.6414 43.165C93.4708 43.0088 93.2405 42.8574 93.0102 42.7061C92.6528 42.471 92.2953 42.2375 92.0377 41.938L91.9491 41.835L91.9169 41.6981C91.8509 41.4147 91.8267 41.1184 91.8042 40.8221C91.7704 40.3922 91.7382 39.9623 91.59 39.827C91.4032 39.6676 91.202 39.761 91.0007 39.8544C90.772 39.9607 90.5434 40.0653 90.2455 40.0879L90.1344 40.0959L90.0297 40.0621C89.223 39.7964 88.492 39.2844 87.7593 38.7707C86.5146 37.8996 85.2699 37.0268 83.8867 37.8384C83.6195 37.9946 83.2749 37.906 83.1187 37.6387C82.9866 37.4149 83.0285 37.1363 83.204 36.9608C83.2088 36.8449 83.2153 36.7338 83.2217 36.6211C83.2958 35.3393 83.3795 33.8595 81.8756 33.2187C81.5906 33.0963 81.4569 32.7662 81.5777 32.4812C81.7001 32.1962 82.0302 32.0625 82.3152 32.1833C82.6292 32.317 82.8965 32.4699 83.1251 32.639C83.2362 32.0191 83.2314 31.3573 83.0993 30.7325C82.9528 30.0385 82.6517 29.3992 82.1815 28.9355C81.7355 28.4959 80.6599 28.1594 79.7147 27.8631C79.3524 27.7504 79.0094 27.6425 78.7131 27.533C77.7438 27.1755 76.6102 26.7295 75.6682 26.0049C74.6763 25.2417 73.9227 24.1934 73.8213 22.6701H73.8229L73.8213 22.6524C73.81 22.3078 73.8229 21.9649 73.847 21.6219L73.8567 21.6235ZM74.9822 21.6283C74.9822 21.6348 74.9822 21.6428 74.9806 21.6493C74.9581 22.0228 75.0434 22.2837 75.1771 22.4608C75.3655 22.712 75.6585 22.8279 75.8791 22.8714C77.0707 23.1001 77.8983 21.572 78.5102 20.4432C78.8548 19.8088 79.1447 19.2742 79.5037 19.0262C80.0045 18.68 80.6132 18.4079 81.2218 18.1358C81.7387 17.9039 82.2572 17.672 82.663 17.4128C83.3586 16.9684 83.7418 16.3694 83.1332 15.2889C82.2975 15.6641 81.4827 16.0409 81.1671 16.5384C81.0012 16.7993 80.6534 16.8766 80.3926 16.7107C80.1317 16.5449 80.0544 16.1971 80.2203 15.9362C80.7307 15.1343 81.7484 14.6786 82.7725 14.2213C83.2894 13.9895 83.8078 13.7576 84.2136 13.4983C84.906 13.0571 85.2876 12.4614 84.6935 11.3922C84.4648 11.5017 84.2297 11.6063 83.9962 11.711C83.1267 12.1007 82.262 12.4871 81.9335 13.004C81.7677 13.2649 81.4199 13.3422 81.159 13.1763C80.8982 13.0104 80.8209 12.6626 80.9867 12.4018C81.4972 11.5999 82.5148 11.1442 83.5389 10.6869C84.0558 10.455 84.5743 10.2232 84.9801 9.96392C85.6837 9.51467 86.067 8.90761 85.4309 7.80301C85.0445 8.01555 84.6274 8.20234 84.2104 8.38912C83.3409 8.7788 82.4762 9.16525 82.1477 9.68213C81.9819 9.94298 81.634 10.0203 81.3732 9.85442C81.1123 9.68857 81.035 9.34076 81.2009 9.07991C81.7113 8.27802 82.729 7.82233 83.7531 7.36503C84.27 7.13315 84.7885 6.90128 85.1942 6.64204C85.7997 6.25559 86.1684 5.74998 85.8528 4.91266C84.8191 5.70006 83.5534 6.0849 82.2975 6.46813C79.924 7.19273 77.5811 7.90606 77.6005 11.7416C77.6021 11.9026 77.6085 12.0669 77.6149 12.2134C77.6488 12.9734 77.6649 13.3695 77.0015 14.1891C76.8662 14.3566 76.7519 14.4918 76.6359 14.6287C75.863 15.5449 75.0161 16.5497 75.0144 18.176C75.2045 19.1389 75.1175 20.0938 75.0322 21.0309C75.0144 21.2322 74.9951 21.4335 74.9806 21.6332L74.9822 21.6283ZM72.5057 12.9557C73.0049 12.0282 73.3463 11.0991 73.3865 10.2264C73.4397 9.08957 72.9534 8.02038 71.5766 7.14765C70.8633 6.69679 69.9407 6.35703 68.9955 6.25559C68.6299 6.21533 68.2628 6.21211 67.9037 6.25076L67.9472 6.27491C68.9085 6.81111 69.7184 7.2974 69.902 7.50189C71.5943 9.37136 71.984 10.9059 72.4123 12.5966C72.4429 12.7158 72.4735 12.8349 72.5041 12.9557H72.5057ZM66.9151 12.9734C65.8797 11.8543 64.9957 12.157 64.1986 12.4308C63.8733 12.5419 63.5577 12.6498 63.2438 12.7029C63.4209 12.9863 63.5803 13.2745 63.7043 13.5692C64.0521 14.3968 63.978 14.6191 63.8379 15.0409C63.8009 15.1553 63.7542 15.2937 63.7252 15.4918C63.6383 16.0779 63.8524 16.6286 64.2018 17.0907C64.672 17.7123 65.3644 18.1712 65.9344 18.3709C66.5125 18.4095 67.0165 18.2952 67.4545 18.0891C67.9198 17.8685 68.3176 17.5432 68.6541 17.1809C68.6718 17.1616 68.6911 17.1439 68.7121 17.1262C67.8844 15.9845 67.1518 14.6706 66.9151 12.9702V12.9734ZM62.4242 11.455C62.8122 11.7158 63.3049 11.5468 63.8363 11.3648C64.7364 11.0573 65.7154 10.7223 66.841 11.434C66.849 11.2086 66.8667 10.9767 66.8925 10.7384C65.936 9.98163 65.0037 9.24576 64.1664 8.56786C63.92 8.36819 63.6737 8.16852 63.4289 7.96725C63.4193 7.9753 63.408 7.98174 63.3967 7.98818C61.3856 9.23932 61.7237 10.3294 62.3887 11.3986C62.4 11.4163 62.4113 11.4357 62.4225 11.4534L62.4242 11.455ZM76.0788 36.6227C75.4637 35.7483 75.0418 34.7548 75.0016 33.5568C73.9936 33.9497 73.0918 34.1574 72.2835 34.2138C72.4317 34.3732 72.5734 34.5342 72.7151 34.6985C73.4219 35.5116 74.1498 36.3489 76.0788 36.6227ZM19.7534 0.154472C19.9176 -0.00171944 20.1527 -0.0387544 20.3508 0.0401462C20.573 0.0642995 20.7694 0.220491 20.8322 0.449141C21.2267 1.88224 22.4569 2.47963 23.6501 3.05769C24.7112 3.57296 25.7498 4.07696 26.373 5.10106C27.1153 5.07691 27.8576 5.18157 28.5436 5.45692C29.2585 5.07369 29.9284 4.72266 30.3631 4.50206C30.3567 4.37646 30.3583 4.25248 30.3695 4.12688C30.4179 3.57296 30.632 3.00778 30.9621 2.55048C31.3067 2.07224 31.7817 1.70511 32.3356 1.56985C32.5401 1.51994 32.7495 1.50222 32.962 1.51994C33.1198 1.53443 33.2857 1.56341 33.4547 1.6085C33.9426 1.73732 34.4353 1.99173 34.8009 2.31216C35.2308 2.68895 35.5013 3.1688 35.4562 3.68729C35.4514 3.74687 35.4401 3.80967 35.424 3.87568L35.4192 3.89662C35.1664 4.90139 34.5046 5.48268 33.8363 6.05753C33.8267 6.06719 33.817 6.07524 33.8074 6.0849L33.7574 6.12838L33.7558 6.12677C33.3275 6.49551 32.8992 6.85781 32.4725 7.21367C35.015 8.9205 34.5062 10.4679 33.5578 11.9912C33.4322 12.1925 33.2792 12.4211 33.1262 12.6482C32.8203 13.1022 32.5144 13.5563 32.3292 14.0007C32.1456 14.4403 32.173 14.5241 32.2261 14.6851C32.276 14.838 32.3388 15.0248 32.3839 15.3259C32.4403 15.7092 32.4194 16.0779 32.3388 16.4273C32.7672 16.3581 33.1939 16.3194 33.6238 16.3162C34.292 16.3114 34.9603 16.3855 35.6382 16.5449C36.907 14.6013 38.4271 14.2213 39.9471 13.8413C40.5542 13.69 41.1628 13.537 41.728 13.2713C41.7409 12.777 41.8118 12.3438 41.9374 11.9638C42.1032 11.4646 42.3641 11.0605 42.7183 10.732C42.7264 10.7256 42.7328 10.7191 42.7409 10.7127C42.9937 10.5017 43.298 10.4003 43.6249 10.3922C43.9984 10.3826 44.401 10.4985 44.7762 10.7046C45.1272 10.8978 45.4669 11.178 45.7439 11.5113C46.1384 11.9847 46.4121 12.5741 46.4282 13.1972C46.4299 13.2761 46.4282 13.3438 46.4234 13.4017C46.3703 14.0619 45.9806 14.6625 45.4573 15.0941C44.9533 15.5095 44.3076 15.7784 43.7118 15.7977C43.1724 16.2357 42.7811 16.8025 42.3914 17.3693C41.4301 18.7638 40.4672 20.1582 37.5302 20.3418C36.6333 21.1147 35.6865 21.6155 34.7026 21.9488C33.8219 22.2467 32.9234 22.4077 32.012 22.5059C31.9347 22.9648 31.8284 23.3545 31.6915 23.7007C31.3421 24.5815 30.8252 25.1547 30.1119 25.897C29.777 26.2448 29.7496 26.3624 29.6739 26.678C29.6498 26.7826 29.6192 26.905 29.5596 27.1176C28.9912 29.1529 28.2199 31.3669 26.7562 32.7759C26.1991 33.3121 25.5518 33.7291 24.7918 33.9755C24.7451 34.0335 24.6839 34.0834 24.613 34.1204C23.9802 34.4473 23.5583 34.9336 23.1284 35.4279C22.1446 36.5583 21.1269 37.7289 17.8968 37.8255C17.4137 38.3231 16.8904 38.7884 16.3768 39.2457C15.9951 39.5855 15.6183 39.9204 15.2963 40.236C15.0644 40.4614 14.9211 40.674 14.781 40.8801C14.6506 41.0717 14.5218 41.2617 14.3302 41.471C13.8069 42.0459 13.203 42.2262 12.6266 42.2214C12.1161 42.2166 11.6572 42.0636 11.3126 41.9251C10.9117 41.835 10.4818 41.7963 10.0422 41.7963C9.57359 41.7963 9.08247 41.8398 8.59458 41.909C7.35954 42.0829 6.58019 42.2568 5.90712 42.603C5.23083 42.9492 4.60929 43.4967 3.68985 44.4145C3.55298 44.5514 3.47408 44.6416 3.43705 44.7237C3.3984 44.8058 3.37908 44.9266 3.35815 45.123C3.32272 45.4467 3.14238 45.7703 2.85898 46.0086C2.62067 46.2083 2.30507 46.3532 1.93794 46.3886L1.84776 46.3983L1.75598 46.3758C1.51767 46.3178 1.23105 46.1648 0.968584 45.9378C0.754426 45.7526 0.545097 45.5127 0.380855 45.2293C0.134492 44.8074 -0.0216994 44.2326 0.00245389 43.6883C0.0249969 43.1827 0.1989 42.6932 0.586963 42.3373C0.814004 42.128 1.08935 41.9493 1.36309 41.7689C1.59979 41.6144 1.83649 41.4582 2.00395 41.2988C2.03133 41.1281 2.04743 40.9332 2.06192 40.7368C2.11345 40.0734 2.16498 39.4084 2.66736 38.972L2.67219 38.9672C3.40323 38.344 3.93139 38.5888 4.45954 38.8319C4.55615 38.877 4.65276 38.9205 4.73327 38.9446C5.3516 38.7127 5.96992 38.2796 6.58663 37.8481C7.84904 36.964 9.11146 36.08 10.6315 36.4391C10.58 35.4875 10.5607 34.4698 11.0131 33.6132C10.9535 33.5488 10.9085 33.4715 10.8827 33.3813C10.6283 32.4748 10.5896 31.4507 10.7893 30.499C10.9793 29.5989 11.3819 28.7584 12.0195 28.1304C12.6588 27.4992 13.8745 27.1192 14.9388 26.7859C15.2834 26.678 15.6103 26.5749 15.8873 26.4735C16.7825 26.1434 17.8227 25.736 18.6327 25.1128C19.0707 24.7763 19.4474 24.3705 19.7019 23.8681C19.5698 23.9165 19.4426 23.9503 19.3267 23.9728C17.3268 24.356 16.2721 22.4093 15.4927 20.973C15.219 20.4674 14.9871 20.0407 14.8519 19.9473C14.4348 19.659 13.8761 19.4095 13.3141 19.1583C12.7618 18.9103 12.2079 18.6639 11.7264 18.3564C10.5268 17.5899 9.85055 16.5787 10.836 14.8107C10.6057 14.6947 10.3835 14.5724 10.1758 14.4403C8.96332 13.6658 8.28702 12.6433 9.31434 10.8431C8.13083 10.0557 7.51412 9.00423 8.63161 7.16375C7.75887 6.3989 7.4481 5.37641 8.48186 3.73882C8.50762 3.69212 8.53983 3.64864 8.58008 3.61C8.80068 3.39262 9.15654 3.39584 9.37553 3.61644C10.295 4.55359 11.6653 4.97063 13.0243 5.38607C15.8019 6.23304 18.5425 7.06875 18.5183 11.7384C18.5167 11.9493 18.5103 12.1103 18.5039 12.2553C18.4829 12.7367 18.4717 12.9879 18.8662 13.4742C18.9628 13.5933 19.09 13.7431 19.2188 13.8961C19.7985 14.582 20.4136 15.3131 20.7775 16.2872C21.0399 15.9072 21.3717 15.5256 21.7935 15.1456C21.8934 14.9025 21.9803 14.6641 22.0608 14.4307C21.1961 13.0749 20.5504 11.6466 20.4876 10.2731C20.4635 9.74493 20.5215 9.23127 20.6809 8.73693C20.5649 8.64032 20.4409 8.53887 20.3137 8.43582C19.8403 8.04937 19.3557 7.65325 18.9354 7.19917C17.9049 6.0849 17.4282 4.8402 18.8694 3.30084C18.6826 2.91599 18.5876 2.50378 18.6439 2.04809C18.7164 1.46036 19.0433 0.833983 19.7582 0.151251L19.7534 0.154472ZM20.04 1.52316C19.8693 1.76791 19.7824 1.9869 19.7566 2.18657C19.718 2.49573 19.8387 2.79201 20.032 3.08346C20.193 3.32499 20.1431 3.64542 19.9257 3.82738C18.7969 4.88529 19.0787 5.71133 19.7534 6.44076C20.0964 6.81111 20.5649 7.19434 21.0206 7.56791C21.0754 7.613 21.1317 7.65809 21.1865 7.70478C21.5584 7.16214 22.0914 6.65653 22.8144 6.19923C23.4601 5.79023 24.2475 5.46014 25.0816 5.27174C24.5905 4.76775 23.8804 4.42316 23.159 4.07374C21.9497 3.48601 20.7082 2.88218 20.04 1.52638V1.52316ZM11.8569 15.2873C11.2482 16.3678 11.6314 16.9668 12.3271 17.4112C12.7344 17.6704 13.2513 17.9039 13.7682 18.1342C14.3769 18.4063 14.9855 18.6784 15.4863 19.0246C15.8454 19.2726 16.1352 19.8072 16.4798 20.4416C17.0917 21.5704 17.9193 23.0985 19.1109 22.8698C19.3315 22.8279 19.6262 22.7104 19.813 22.4592C19.9466 22.2805 20.032 22.0212 20.0094 21.6477C20.0094 21.6412 20.0094 21.6332 20.0078 21.6267C19.9933 21.4271 19.974 21.2274 19.9563 21.0245C19.8709 20.0874 19.784 19.1325 19.974 18.1696C19.9724 16.5433 19.1254 15.5385 18.3525 14.6223C18.2366 14.4854 18.1222 14.3502 17.987 14.1827C17.3236 13.3631 17.3413 12.967 17.3735 12.207C17.3799 12.0604 17.3864 11.8962 17.388 11.7352C17.4073 7.90123 15.0644 7.18629 12.691 6.46169C11.4334 6.07846 10.1694 5.69201 9.13561 4.90622C8.82001 5.74354 9.18714 6.24754 9.79419 6.6356C10.2016 6.89484 10.7185 7.12832 11.2353 7.35859C12.2578 7.81589 13.2771 8.27319 13.7875 9.07347C13.9534 9.33432 13.8777 9.68213 13.6152 9.84798C13.3544 10.0138 13.0066 9.93815 12.8407 9.67569C12.5122 9.15881 11.6475 8.77236 10.778 8.38268C10.361 8.1959 9.94394 8.00911 9.55749 7.79656C8.92145 8.89956 9.30468 9.50823 10.0083 9.95748C10.4157 10.2167 10.9326 10.4502 11.4495 10.6805C12.472 11.1378 13.4912 11.5951 14.0017 12.3953C14.1675 12.6562 14.0919 13.004 13.8294 13.1699C13.5685 13.3357 13.2207 13.26 13.0549 12.9976C12.7264 12.4807 11.8617 12.0942 10.9922 11.7046C10.7587 11.5999 10.5236 11.4952 10.295 11.3857C9.7008 12.4549 10.084 13.0507 10.7748 13.4919C11.1822 13.7512 11.6991 13.9846 12.216 14.2149C13.2384 14.6722 14.2577 15.1295 14.7682 15.9298C14.934 16.1906 14.8583 16.5384 14.5959 16.7043C14.335 16.8701 13.9872 16.7945 13.8213 16.532C13.5041 16.0344 12.691 15.6576 11.8553 15.2825L11.8569 15.2873ZM22.4875 12.9557C22.5181 12.8349 22.5487 12.7158 22.5793 12.5966C23.0092 10.9059 23.3989 9.37136 25.0896 7.50189C25.2732 7.29901 26.0831 6.81272 27.0444 6.27491L27.0879 6.25076C26.7288 6.21211 26.3617 6.21533 25.9962 6.25559C25.0494 6.35864 24.1283 6.69679 23.415 7.14765C22.0367 8.02038 21.552 9.08957 21.6051 10.2264C21.6454 11.0975 21.9868 12.0282 22.4859 12.9557H22.4875ZM28.1507 11.434C29.2762 10.7223 30.2552 11.0573 31.1553 11.3648C31.6883 11.5468 32.1794 11.7158 32.5675 11.455C32.5788 11.4373 32.59 11.4196 32.6013 11.4002C33.2663 10.331 33.6045 9.23932 31.5933 7.98979C31.582 7.98335 31.5724 7.9753 31.5611 7.96886C31.3147 8.17013 31.07 8.3698 30.8236 8.56947C29.9863 9.24576 29.0556 9.98324 28.0975 10.74C28.1233 10.9784 28.1394 11.2102 28.1491 11.4357L28.1507 11.434ZM31.7495 12.7029C31.4355 12.6498 31.1199 12.5419 30.7946 12.4308C29.9976 12.157 29.1136 11.8559 28.0782 12.9734C27.8415 14.6738 27.1105 15.9877 26.2812 17.1294C26.3021 17.1455 26.3215 17.1632 26.3392 17.1841C26.6757 17.5448 27.0734 17.8717 27.5388 18.0923C27.9752 18.2984 28.4792 18.4127 29.0588 18.3741C29.6288 18.1728 30.3212 17.7155 30.7914 17.094C31.1408 16.6318 31.3566 16.0811 31.2681 15.495C31.2391 15.2953 31.1924 15.1569 31.1553 15.0442C31.0152 14.6223 30.9412 14.3985 31.289 13.5724C31.413 13.2777 31.5724 12.9895 31.7495 12.7061V12.7029ZM18.9145 36.6227C20.8435 36.3489 21.5713 35.5116 22.2782 34.6985C22.4199 34.5358 22.5616 34.3732 22.7097 34.2138C21.9014 34.1574 20.9997 33.9497 19.9917 33.5568C19.9514 34.7548 19.5296 35.7483 18.9145 36.6227Z" fill="#FFFFEF"/>
</svg>
