<svg width="24" height="25" viewBox="0 0 24 25" fill="none" xmlns="http://www.w3.org/2000/svg">
<path d="M21.5934 13.7662C21.3144 13.5515 20.9895 13.404 20.6442 13.3353C20.2988 13.2665 19.9422 13.2783 19.6022 13.3697L15.6797 14.2716C15.7709 13.8861 15.7738 13.4849 15.6879 13.0981C15.6021 12.7114 15.4298 12.3491 15.1841 12.0384C14.9383 11.7277 14.6254 11.4766 14.2688 11.304C13.9122 11.1315 13.5212 11.0418 13.125 11.0419H8.43188C8.03775 11.0409 7.64733 11.118 7.28319 11.2688C6.91904 11.4196 6.58838 11.641 6.31031 11.9203L4.18969 14.0419H1.5C1.10218 14.0419 0.720644 14.1999 0.43934 14.4812C0.158035 14.7625 0 15.144 0 15.5419L0 19.2919C0 19.6897 0.158035 20.0712 0.43934 20.3525C0.720644 20.6338 1.10218 20.7919 1.5 20.7919H11.25C11.3113 20.7919 11.3724 20.7843 11.4319 20.7694L17.4319 19.2694C17.4701 19.2603 17.5075 19.2477 17.5434 19.2319L21.1875 17.6812L21.2288 17.6625C21.579 17.4875 21.8789 17.2262 22.1002 16.9033C22.3215 16.5803 22.457 16.2064 22.4939 15.8166C22.5307 15.4268 22.4678 15.0341 22.3109 14.6754C22.154 14.3167 21.9084 14.0038 21.5972 13.7662H21.5934ZM1.5 15.5419H3.75V19.2919H1.5V15.5419ZM20.5716 16.3116L17.0091 17.8284L11.1562 19.2919H5.25V15.1022L7.37156 12.9816C7.51035 12.8417 7.67555 12.7308 7.85758 12.6553C8.03961 12.5798 8.23482 12.5412 8.43188 12.5419H13.125C13.4234 12.5419 13.7095 12.6604 13.9205 12.8714C14.1315 13.0824 14.25 13.3685 14.25 13.6669C14.25 13.9652 14.1315 14.2514 13.9205 14.4624C13.7095 14.6733 13.4234 14.7919 13.125 14.7919H10.5C10.3011 14.7919 10.1103 14.8709 9.96967 15.0115C9.82902 15.1522 9.75 15.343 9.75 15.5419C9.75 15.7408 9.82902 15.9316 9.96967 16.0722C10.1103 16.2129 10.3011 16.2919 10.5 16.2919H13.5C13.5565 16.2917 13.6127 16.2854 13.6678 16.2731L19.9491 14.8284L19.9781 14.8209C20.1699 14.7677 20.3745 14.7873 20.5527 14.8759C20.7309 14.9644 20.87 15.1158 20.9433 15.3008C21.0167 15.4858 21.0189 15.6914 20.9498 15.878C20.8806 16.0646 20.7449 16.219 20.5687 16.3116H20.5716ZM15.375 9.54187C15.5603 9.54208 15.7453 9.52703 15.9281 9.49687C16.1338 10.1077 16.51 10.6469 17.0124 11.0506C17.5147 11.4544 18.1222 11.7059 18.763 11.7754C19.4037 11.8448 20.051 11.7294 20.6282 11.4426C21.2054 11.1559 21.6884 10.7099 22.0202 10.1573C22.352 9.60478 22.5186 8.96878 22.5004 8.32453C22.4821 7.68027 22.2798 7.05471 21.9173 6.52181C21.5548 5.9889 21.0473 5.57092 20.4548 5.3173C19.8623 5.06368 19.2096 4.98502 18.5737 5.09062C18.3757 4.5021 18.0192 3.97962 17.5434 3.58066C17.0676 3.18171 16.4909 2.92175 15.8769 2.82941C15.2629 2.73706 14.6353 2.8159 14.0631 3.05724C13.491 3.29859 12.9966 3.6931 12.6342 4.19734C12.2719 4.70158 12.0556 5.29601 12.0093 5.91522C11.963 6.53443 12.0885 7.15441 12.3718 7.70693C12.6552 8.25946 13.0854 8.7231 13.6153 9.04684C14.1452 9.37059 14.7541 9.54188 15.375 9.54187ZM21 8.41687C21 8.78771 20.89 9.15022 20.684 9.45857C20.478 9.76691 20.1851 10.0072 19.8425 10.1491C19.4999 10.2911 19.1229 10.3282 18.7592 10.2558C18.3955 10.1835 18.0614 10.0049 17.7992 9.7427C17.537 9.48047 17.3584 9.14638 17.286 8.78267C17.2137 8.41895 17.2508 8.04195 17.3927 7.69934C17.5346 7.35673 17.775 7.06389 18.0833 6.85787C18.3916 6.65184 18.7542 6.54187 19.125 6.54187C19.6223 6.54187 20.0992 6.73942 20.4508 7.09105C20.8025 7.44268 21 7.91959 21 8.41687ZM15.375 4.29187C15.784 4.29208 16.1818 4.42603 16.5076 4.67332C16.8334 4.92061 17.0695 5.26766 17.1797 5.66156C16.7956 5.93184 16.4721 6.27931 16.2299 6.68176C15.9878 7.08421 15.8323 7.53277 15.7734 7.99875C15.6425 8.02702 15.509 8.04148 15.375 8.04187C14.8777 8.04187 14.4008 7.84433 14.0492 7.4927C13.6975 7.14107 13.5 6.66415 13.5 6.16687C13.5 5.66959 13.6975 5.19268 14.0492 4.84105C14.4008 4.48942 14.8777 4.29187 15.375 4.29187Z" fill="#116429"/>
</svg>
