<svg width="400" height="288" viewBox="0 0 400 288" fill="none" xmlns="http://www.w3.org/2000/svg">
<g clip-path="url(#clip0_333_886)">
<path d="M157.25 359.763H239.462C240.137 359.763 240.706 357.957 240.706 355.857V104.257C240.706 102.144 240.137 100.351 239.462 100.351H157.25C156.875 100.351 156.6 100.757 156.394 101.401L156.381 101.532C156.381 101.532 156.356 101.544 156.344 101.663C156.094 102.508 155.982 103.388 156.012 104.269V355.869C156.012 357.957 156.569 359.763 157.25 359.763Z" fill="#DFAD92"/>
<path d="M194.438 359.763H239.994C240.381 359.763 240.688 357.957 240.688 355.857V104.257C240.688 102.144 240.375 100.351 239.994 100.351H194.444C194.238 100.351 194.081 100.757 193.981 101.401L193.969 101.532C193.969 101.532 193.956 101.544 193.944 101.663C193.803 102.524 193.742 103.397 193.763 104.269V355.869C193.763 357.957 194.063 359.763 194.438 359.763Z" fill="#A4806D"/>
<path d="M157.25 251.232H239.438C240.125 251.232 240.694 250.844 240.694 250.388V195.438C240.694 194.976 240.125 194.576 239.438 194.576H157.238C156.943 194.567 156.654 194.648 156.406 194.807L156.369 194.832L156.319 194.869C156.223 194.929 156.143 195.012 156.088 195.11C156.032 195.208 156.002 195.319 156 195.432V250.382C156 250.851 156.544 251.232 157.238 251.232" fill="#A4806D"/>
<path d="M133.688 30.0005H63.0188C28.225 30.0005 0 68.5755 0 116.144V221.157H70.6688V116.144C70.6688 68.5755 98.875 30.0005 133.688 30.0005Z" fill="#7C9C9F"/>
<path d="M298.269 30.0005H133.687C98.875 30.0005 70.6875 68.5755 70.6875 116.144V221.157H361.294V116.144C361.294 68.5755 333.081 30.0005 298.294 30.0005" fill="#112211"/>
<path d="M145.312 30.0005H63.0312C28.2313 30.0005 0.03125 68.5755 0.03125 116.144V221.157H208.356V116.144C208.356 68.5755 180.144 30.0005 145.356 30.0005" fill="#11642C"/>
<path d="M399.394 137.988C399.419 138.025 399.569 138.038 399.569 138.075V213.469C399.578 213.736 399.518 214.001 399.394 214.238C399.394 214.238 399.369 214.238 399.369 214.25H399.344C399.262 214.407 399.112 214.544 398.937 214.544H358.119C357.756 214.544 357.475 214.032 357.475 213.4V172.357H233.5C232.144 172.357 230.969 172.113 230.969 171.844V138.007C230.969 137.713 232.144 137.482 233.5 137.482H398.937C399.125 137.482 399.294 137.669 399.394 137.925" fill="#FF8682"/>
<path d="M140.426 42.0005H66.5675C35.3409 42.0005 10 78.1169 10 122.668V221H197V122.668C197 78.1169 171.683 42.0005 140.426 42.0005Z" fill="#546869"/>
</g>
<defs>
<clipPath id="clip0_333_886">
<rect width="400" height="305" fill="white" transform="translate(0 -16.9995)"/>
</clipPath>
</defs>
</svg>
